<?xml version="1.0" encoding="UTF-8"?>
<svg version="1.1" xmlns="http://www.w3.org/2000/svg" width="512" height="512">
<path d="M0 0 C2.90234375 1.0390625 2.90234375 1.0390625 5.9375 2.625 C6.52047852 2.92857422 7.10345703 3.23214844 7.70410156 3.54492188 C16.88901291 8.41816943 25.79711444 13.81742969 34.75292969 19.09423828 C40.10985526 22.23831054 45.49221436 25.33797616 50.875 28.4375 C51.95426758 29.05947266 53.03353516 29.68144531 54.14550781 30.32226562 C56.33614966 31.5846694 58.526905 32.84687623 60.71777344 34.10888672 C66.14659942 37.23680148 71.57319281 40.36858448 77 43.5 C79.16665583 44.75001879 81.3333225 46.00001878 83.5 47.25 C96.5 54.75 109.5 62.25 122.5 69.75 C123.57362793 70.36939453 124.64725586 70.98878906 125.75341797 71.62695312 C127.90871311 72.8704051 130.06398673 74.11389436 132.21923828 75.35742188 C137.22337674 78.24462875 142.2277052 81.1315043 147.23284912 84.01696777 C148.98341241 85.02619104 150.73390411 86.03553836 152.484375 87.04492188 C154.66392165 88.3016766 156.84359832 89.55820586 159.0234375 90.81445312 C165.15125949 94.34821645 171.26277402 97.90757863 177.35571289 101.5012207 C179.72170321 102.84226165 182.10104778 104.0348731 184.5625 105.1875 C187.82504403 106.90775049 189.33729063 107.77238769 191 111 C192.30101513 115.75141162 192.13349059 120.49502759 192.11352539 125.38012695 C192.11367142 126.31719986 192.11381744 127.25427277 192.1139679 128.21974182 C192.11327264 131.30927872 192.10549832 134.39875492 192.09765625 137.48828125 C192.0957907 139.63347847 192.09436744 141.77867611 192.09336853 143.9238739 C192.08955417 149.56435324 192.07973309 155.20480674 192.06866455 160.84527588 C192.0584272 166.60322724 192.05386593 172.36118278 192.04882812 178.11914062 C192.03810987 189.41277175 192.02104641 200.70638373 192 212 C193.15543304 211.98889694 194.31086609 211.97779388 195.50131226 211.96635437 C206.41748909 211.86477002 217.33356937 211.78993467 228.25011253 211.74093914 C233.86176712 211.71490267 239.47303854 211.67961313 245.08447266 211.62280273 C250.50505945 211.56827112 255.92527888 211.53853475 261.34611893 211.52561378 C263.40889896 211.51641184 265.47166005 211.4984427 267.53428268 211.47134972 C289.54233702 211.19390083 289.54233702 211.19390083 297.80160522 218.61982727 C301.45905738 222.4903145 303.48405744 226.67885867 305.25 231.6484375 C305.67478638 232.78833633 305.67478638 232.78833633 306.1081543 233.95126343 C308.77147629 241.17486116 311.27676699 248.45745303 313.8125 255.7265625 C314.234104 256.93495789 314.65570801 258.14335327 315.09008789 259.3883667 C318.7976193 270.02660118 318.7976193 270.02660118 320.31152344 274.45947266 C321.58310081 278.18071671 322.88484983 281.89107753 324.1875 285.6015625 C324.75658081 287.29232407 324.75658081 287.29232407 325.3371582 289.01724243 C328.77022955 298.6848058 333.92460041 304.44417039 341.6875 311 C348.01076661 316.65537699 350.89668388 321.4927339 352 330 C352.07929696 332.52761179 352.10777159 335.05710238 352.09765625 337.5859375 C352.09553383 338.63861313 352.09553383 338.63861313 352.09336853 339.71255493 C352.0878129 341.93341504 352.07526892 344.15417084 352.0625 346.375 C352.05747926 347.88932145 352.05291736 349.4036445 352.04882812 350.91796875 C352.03785807 354.61201252 352.02062449 358.30599606 352 362 C352.61488281 362.28359375 353.22976563 362.5671875 353.86328125 362.859375 C356.79911311 364.42658323 358.17488947 366.23086679 360 369 C362.31548486 376.91123995 362.03702267 387.3414211 359 395 C355.4669575 399.1613413 352.39423654 401.17631575 347 402 C343.99500363 402.19045471 340.99055315 402.25559665 337.98046875 402.31640625 C337.12189774 402.33718735 336.26332672 402.35796844 335.3787384 402.37937927 C332.64840346 402.44452523 329.91797605 402.50359654 327.1875 402.5625 C325.33137082 402.6057185 323.47525084 402.64933384 321.61914062 402.69335938 C317.07952075 402.80017061 312.53980828 402.90153565 308 403 C307.8153418 403.66169189 307.63068359 404.32338379 307.44042969 405.00512695 C304.28763877 415.96077493 299.22397234 425.6855448 289.16796875 431.69140625 C277.32267734 437.87479736 266.53894778 440.05022065 253.375 436.4375 C240.82720476 432.16974689 232.93674565 424.26896648 226.98046875 412.72265625 C226 410 226 410 225 402 C200.25 402 175.5 402 150 402 C149.34 404.64 148.68 407.28 148 410 C144.43035859 413.66357935 141.49592356 414.86100619 136.47807312 415.14044189 C135.0574633 415.1506839 135.0574633 415.1506839 133.6081543 415.16113281 C132.52990891 415.17074036 131.45166351 415.1803479 130.34074402 415.19024658 C129.18029068 415.19449646 128.01983734 415.19874634 126.82421875 415.203125 C125.62569778 415.20882507 124.42717682 415.21452515 123.19233704 415.22039795 C120.65630983 415.229843 118.12027038 415.23637996 115.58422852 415.24023438 C111.71283461 415.24993651 107.84197238 415.28096417 103.97070312 415.3125 C101.50521148 415.31903065 99.03971605 415.32428088 96.57421875 415.328125 C95.4198381 415.3404718 94.26545746 415.3528186 93.07609558 415.36553955 C86.12185321 415.34635197 80.37920495 415.16119172 75.0625 410.1875 C74 408 74 408 74 402 C65.75 402 57.5 402 49 402 C48.34 405.3 47.68 408.6 47 412 C45.35693617 415.59126808 43.22853509 418.74470529 41 422 C40.4225 422.886875 39.845 423.77375 39.25 424.6875 C30.58658067 433.59156987 19.88396213 438.03690853 7.5 438.5 C-3.00163723 438.11904581 -12.21722562 435.11125182 -20 428 C-20.60328125 427.49855469 -21.2065625 426.99710937 -21.828125 426.48046875 C-29.11755429 419.96752215 -32.76636444 411.55327381 -34 402 C-34.6233876 402.00444122 -35.24677521 402.00888245 -35.88905334 402.01345825 C-42.39435528 402.05780543 -48.89961405 402.08791371 -55.4050293 402.10986328 C-57.8308283 402.11990263 -60.25661526 402.13353687 -62.68237305 402.15087891 C-66.17499775 402.17521775 -69.66746202 402.186504 -73.16015625 402.1953125 C-74.77930687 402.21079636 -74.77930687 402.21079636 -76.4311676 402.22659302 C-90.07481867 402.22861259 -90.07481867 402.22861259 -95.38769531 397.20898438 C-99.42655317 391.99272747 -98.85921271 385.98202893 -98.796875 379.65625 C-98.80261536 378.3731897 -98.80835571 377.09012939 -98.81427002 375.76818848 C-98.82308044 373.06132311 -98.81037831 370.3556515 -98.78222656 367.64892578 C-98.74803673 364.19504019 -98.76773971 360.74395191 -98.80366135 357.29016876 C-98.83067116 353.97447712 -98.81170962 350.6595209 -98.796875 347.34375 C-98.81509308 345.4950531 -98.81509308 345.4950531 -98.8336792 343.60900879 C-98.72732111 337.0963598 -98.31476397 332.9234552 -93.62017822 328.19641113 C-89.14068331 324.88855431 -83.36850275 324.65736768 -78 324 C-78.680625 322.453125 -78.680625 322.453125 -79.375 320.875 C-80.40745106 318.52120102 -81.13336554 316.45542404 -81.75 313.9375 C-83.26415942 310.37922535 -85.13851921 308.97992271 -88.24609375 306.78515625 C-93.56006742 301.37650153 -93.38045939 295.07282228 -93.41699219 287.8840332 C-93.40313477 286.62292725 -93.38927734 285.36182129 -93.375 284.0625 C-93.36629883 282.76594482 -93.35759766 281.46938965 -93.34863281 280.13354492 C-93.13618221 266.22760794 -92.49068486 248.49068486 -82 238 C-81.25363281 237.64808594 -80.50726563 237.29617188 -79.73828125 236.93359375 C-75.67222667 234.06241399 -73.63982799 230.23129789 -71.125 226 C-70.61453125 225.18015625 -70.1040625 224.3603125 -69.578125 223.515625 C-67.62501597 220.34161546 -67.62501597 220.34161546 -66 217 C-66.33 216.01 -66.66 215.02 -67 214 C-67.66611433 208.11599006 -67.66611433 208.11599006 -65.953125 205.24609375 C-64.16567453 203.06435273 -62.54217952 201.27108976 -60 200 C-58.64522899 199.90229173 -57.28583025 199.86499941 -55.92755127 199.85955811 C-55.07522919 199.85384796 -54.2229071 199.84813782 -53.34475708 199.84225464 C-51.93901932 199.84057785 -51.93901932 199.84057785 -50.50488281 199.83886719 C-49.51936432 199.83390228 -48.53384583 199.82893738 -47.51846313 199.82382202 C-44.24667674 199.80917541 -40.97493885 199.80239366 -37.703125 199.796875 C-35.43349201 199.79112489 -33.16385903 199.78536714 -30.89422607 199.77960205 C-26.12935153 199.76908446 -21.3644939 199.76324699 -16.59960938 199.75976562 C-10.49517831 199.75428424 -4.39097068 199.73026685 1.71339035 199.70179367 C6.40428315 199.68316404 11.09512222 199.67796147 15.78604889 199.67642975 C18.03630035 199.67340262 20.28655085 199.66537209 22.53676605 199.65224457 C25.68711794 199.63518026 28.83692527 199.63706565 31.98730469 199.64355469 C32.91636627 199.6343399 33.84542786 199.62512512 34.80264282 199.6156311 C41.65728654 199.65983501 46.45808706 201.19332884 51.5234375 206.01171875 C52.14275146 206.59711426 52.76206543 207.18250977 53.40014648 207.78564453 C54.05184814 208.41325684 54.7035498 209.04086914 55.375 209.6875 C56.07633057 210.34089355 56.77766113 210.99428711 57.50024414 211.66748047 C61.12707561 215.08139831 64.52925793 218.5467107 67.72265625 222.37109375 C77.88183472 234.2171859 86.92537668 236.3950908 102.09033203 238.51367188 C114.24053808 240.54448329 126.68943383 246.23479738 134.4375 256 C141.07629122 265.71438942 141.20272919 275.42364625 141.25 286.875 C141.2809375 288.73705078 141.2809375 288.73705078 141.3125 290.63671875 C141.3759551 305.53280287 141.3759551 305.53280287 135.6875 311.375 C130.78966019 314.33648453 126.70511585 315.27167218 121 315 C120.87625 315.9075 120.7525 316.815 120.625 317.75 C120 321 120 321 118 325 C128.56 325 139.12 325 150 325 C149.67 261.97 149.34 198.94 149 134 C143.06 130.7 137.12 127.4 131 124 C127.15668654 121.78516743 123.32215286 119.56271064 119.5 117.3125 C117.44562799 116.10883637 115.39092877 114.90573107 113.3359375 113.703125 C112.2953418 113.09404297 111.25474609 112.48496094 110.18261719 111.85742188 C104.8410891 108.74002807 99.48351626 105.65057458 94.125 102.5625 C93.04541016 101.94028564 91.96582031 101.31807129 90.85351562 100.67700195 C88.6631748 99.41488483 86.47274498 98.15292215 84.28222656 96.89111328 C77.77270411 93.14053601 71.2660522 89.38498011 64.75927734 85.62963867 C59.29465337 82.47614838 53.82852098 79.3253296 48.359375 76.1796875 C47.25207031 75.54224609 46.14476562 74.90480469 45.00390625 74.24804688 C42.95501346 73.0686422 40.90560689 71.89012919 38.85546875 70.71289062 C28.18328177 64.56679093 17.59609124 58.27604779 7 52 C6.79103846 59.45806861 6.63134641 66.91550198 6.53369045 74.37590981 C6.48680606 77.84069146 6.42328348 81.3034645 6.32104492 84.76708984 C6.2041227 88.75333183 6.16080237 92.73877429 6.12109375 96.7265625 C6.07464218 97.96427399 6.02819061 99.20198547 5.98033142 100.47720337 C5.80917892 106.83972832 5.80917892 106.83972832 8.97341919 112.02484131 C11.34002961 113.63076113 11.34002961 113.63076113 13.81190491 114.79403687 C16.88939067 116.49018544 18.08287488 118.54123997 19.4140625 121.72265625 C20.87616343 127.40535521 20.75515196 132.85377865 18.8125 138.375 C15.36667457 143.3655058 11.77974759 146.96638511 6 149 C-1.11786728 149.8951919 -7.11657267 149.2978228 -13 145 C-17.13552151 140.64681947 -19.28602825 136.90973271 -19.25 130.875 C-19.25773437 129.57175781 -19.25773437 129.57175781 -19.265625 128.2421875 C-19 126 -19 126 -17 124 C-14.0625 123.5625 -14.0625 123.5625 -11 124 C-8.82512393 126.65818186 -7.74530088 129.60998303 -6.4375 132.75 C-5.3790064 136.07594875 -5.3790064 136.07594875 -3 137 C0.67329964 137.13357453 3.49852959 137.1671568 7 136 C8.19754817 132.40735548 8.33094958 129.77282526 8 126 C5.42710174 122.14065261 1.94685113 121.02131049 -2.29296875 119.61328125 C-4 119 -4 119 -5 118 C-5.05555302 115.77144423 -5.04054223 113.54111726 -4.99902344 111.31225586 C-4.97625027 109.86214516 -4.95404006 108.41202554 -4.93231201 106.9618988 C-4.91313847 105.80240628 -4.91313847 105.80240628 -4.89357758 104.61948967 C-4.82321758 99.67276024 -4.81676288 94.72546071 -4.79972458 89.77831173 C-4.78110071 85.43021587 -4.73935526 81.08474873 -4.64697266 76.73754883 C-4.55889537 72.53380851 -4.53482971 68.33393747 -4.55335236 64.12936592 C-4.54906413 62.53087247 -4.52188899 60.93226265 -4.4708786 59.33457756 C-4.31710546 54.26936404 -4.38194707 49.83685185 -6 45 C-9.21641778 42.02584291 -11.85472723 40.49397902 -15.81671143 38.65065002 C-19.81127869 36.57932272 -22.15661506 34.12854295 -23.8203125 29.9296875 C-24.90076791 22.64353951 -21.81601873 18.01688535 -18 12 C-17.56945312 11.22914062 -17.13890625 10.45828125 -16.6953125 9.6640625 C-12.63173434 2.51960156 -8.47725193 -0.59457877 0 0 Z M-28 315 C-29.32 318.3 -30.64 321.6 -32 325 C2.32 325 36.64 325 72 325 C70.68 321.7 69.36 318.4 68 315 C36.32 315 4.64 315 -28 315 Z " fill="#010100" transform="translate(125,37)"/>
<path d="M0 0 C12.25697853 -0.3258563 24.51291039 -0.57386664 36.77335453 -0.72537041 C42.46806475 -0.79812671 48.15979063 -0.8966192 53.8527832 -1.05615234 C59.35793804 -1.20943804 64.86024304 -1.29221195 70.3673687 -1.3282814 C72.45711548 -1.35394723 74.54672397 -1.40407064 76.63524055 -1.48022079 C86.66261662 -1.83094577 94.77028535 -2.01903629 102.62774563 4.84895134 C105.05383591 7.23026395 107.32954828 9.69384659 109.52751732 12.28656387 C111.64778138 14.75378273 113.95802497 16.97453987 116.296875 19.234375 C117.78401762 20.73684899 119.26850602 22.24195595 120.75 23.75 C122.26328596 25.28876215 123.77880852 26.82532887 125.296875 28.359375 C125.93979492 29.01389648 126.58271484 29.66841797 127.24511719 30.34277344 C130.47246676 33.39052648 133.06580347 34.37199466 137.33984375 35.1484375 C138.40396484 35.34953125 139.46808594 35.550625 140.56445312 35.7578125 C142.77775091 36.16279345 144.9912855 36.56648284 147.20507812 36.96875 C160.22248585 39.43339999 174.02462878 42.54542052 182.80859375 53.15625 C186.97990829 59.61153021 186.3376059 66.54485261 186.31567383 73.93920898 C186.31249495 76.19107639 186.33606663 78.44165237 186.36132812 80.69335938 C186.36359944 82.12239418 186.3643054 83.55143251 186.36328125 84.98046875 C186.36626221 86.27879639 186.36924316 87.57712402 186.37231445 88.91479492 C186.24945068 89.9329126 186.12658691 90.95103027 186 92 C182.5647952 94.29013653 181.014669 94.17842973 177 94 C176.63648438 93.19175781 176.27296875 92.38351562 175.8984375 91.55078125 C172.14450381 83.57126579 168.91129781 77.84752415 160.3125 74.5078125 C152.77554683 72.85273832 143.46825614 72.42595917 136.70703125 76.609375 C130.31836858 81.81386907 127.96953591 86.08123759 125 94 C92.99 94 60.98 94 28 94 C26.02 90.04 24.04 86.08 22 82 C14.23779214 75.07372222 8.0412344 73.40153838 -2.33203125 73.6953125 C-9.47902409 74.28899242 -13.14604199 76.82204245 -17.875 82.0625 C-19.7370911 84.31866154 -21.37377944 86.56066916 -23 89 C-23.99 88.67 -24.98 88.34 -26 88 C-30.57036164 74.28891507 -27.52397976 53.13920319 -21.625 40.1875 C-20.21397199 37.39903988 -19.40381835 36.22576201 -16.65234375 34.6875 C-13.00858777 32.36923405 -11.23083941 29.41024266 -8.9375 25.8125 C-8.51662109 25.17763672 -8.09574219 24.54277344 -7.66210938 23.88867188 C-6.39745438 21.94953422 -5.19076472 19.98526097 -4 18 C-3.40662842 17.04939697 -3.40662842 17.04939697 -2.80126953 16.07958984 C-0.57345134 12.17968286 0.20646785 9.26053596 0.10571289 4.74145508 C0.08281944 3.40525871 0.08281944 3.40525871 0.0594635 2.04206848 C0.03984055 1.36818588 0.02021759 0.69430328 0 0 Z " fill="#42C88C" transform="translate(69,247)"/>
<path d="M0 0 C14.85 -0.0825 29.7 -0.165 45 -0.25 C49.67800781 -0.28641602 54.35601562 -0.32283203 59.17578125 -0.36035156 C64.91601562 -0.37841797 64.91601562 -0.37841797 67.60864258 -0.3817749 C69.4774965 -0.38789192 71.34633524 -0.40190771 73.21508789 -0.42230225 C76.0564286 -0.45174404 78.89681 -0.45561876 81.73828125 -0.45410156 C82.56201736 -0.468494 83.38575348 -0.48288643 84.23445129 -0.497715 C89.93108353 -0.45721932 94.22542562 0.83779452 99 4 C100.875 6.10546875 100.875 6.10546875 102 8.1875 C102.5878125 9.22970703 102.5878125 9.22970703 103.1875 10.29296875 C104 12 104 12 104 13 C103.25275665 13.01030746 102.50551331 13.02061493 101.73562622 13.03123474 C94.70185331 13.12911447 87.6681666 13.23161523 80.63453865 13.33933926 C77.0182718 13.39456054 73.40199685 13.44797924 69.78564453 13.49731445 C66.29724878 13.54496978 62.8089523 13.59731296 59.3206749 13.65294075 C57.33867812 13.68331232 55.35660845 13.70879787 53.37454224 13.73423767 C52.17344818 13.75418289 50.97235413 13.77412811 49.73486328 13.79467773 C48.14268478 13.81799416 48.14268478 13.81799416 46.51834106 13.84178162 C44.00420764 13.83529181 44.00420764 13.83529181 42 15 C41.97687236 22.93613787 41.95908277 30.87226176 41.94818783 38.80842495 C41.94295992 42.49314498 41.93586395 46.17784203 41.92456055 49.86254883 C41.91372838 53.41570831 41.90772247 56.96884563 41.90512276 60.52202034 C41.9032691 61.88045666 41.89964962 63.23889171 41.89426994 64.59731865 C41.88705525 66.49382223 41.88659191 68.39034793 41.88647461 70.28686523 C41.884254 71.36830307 41.88203339 72.44974091 41.87974548 73.56394958 C41.7241803 75.94797472 41.7241803 75.94797472 43 77 C45.58534735 77.07723687 48.14428739 77.09055674 50.72924805 77.0625 C52.40833905 77.05305124 54.08743156 77.04386794 55.76652527 77.03491211 C56.66157461 77.02861786 57.55662395 77.02232361 58.47879601 77.01583862 C63.20395758 76.98894601 67.92908021 76.9987432 72.65429688 77.00390625 C78.67445875 77.01011537 84.69368273 77.00482484 90.71362305 76.94873047 C95.57175604 76.90443173 100.42815862 76.90393389 105.28638649 76.93286133 C107.13754336 76.93594147 108.98879905 76.9230476 110.8397274 76.89379883 C125.38435537 76.67671805 125.38435537 76.67671805 129.36541748 79.93737793 C130.88495131 82.23719064 131.95213892 84.45781758 133 87 C134.94534934 89.24985504 134.94534934 89.24985504 136.8671875 90.90625 C137.52460938 91.504375 138.18203125 92.1025 138.859375 92.71875 C139.85710937 93.60046875 139.85710937 93.60046875 140.875 94.5 C142.22848444 95.71661523 143.58015905 96.93524807 144.9296875 98.15625 C145.51991699 98.68025391 146.11014648 99.20425781 146.71826172 99.74414062 C147.14123535 100.15857422 147.56420898 100.57300781 148 101 C148 101.33 148 101.66 148 102 C147.05898438 102.02578125 146.11796875 102.0515625 145.1484375 102.078125 C135.72481146 102.30118872 135.72481146 102.30118872 128 107 C126.37158299 110.25683403 126.73204423 113.79958335 126.6875 117.375 C126.65849609 118.14328125 126.62949219 118.9115625 126.59960938 119.703125 C126.53705277 124.44371612 126.53705277 124.44371612 128.89453125 128.4765625 C132.96557545 131.42221601 136.74528486 131.32089073 141.625 131.5625 C142.82769531 131.62727539 142.82769531 131.62727539 144.0546875 131.69335938 C146.0362511 131.79951457 148.01810271 131.90026855 150 132 C150 134.31 150 136.62 150 139 C142.52948419 139.12763434 135.05925348 139.21469927 127.58789062 139.2746582 C125.05067436 139.29967528 122.51352923 139.33369984 119.9765625 139.37719727 C116.31232057 139.438412 112.64903814 139.4663395 108.984375 139.48828125 C107.86512634 139.51408768 106.74587769 139.5398941 105.5927124 139.56648254 C98.40331624 139.56899604 93.08427667 138.24108767 86.59042358 135.13456726 C78.87739004 131.75637251 68.03853058 133.16885029 60.30078125 135.96484375 C48.83551392 141.12324076 42.06568587 147.65458501 37.04296875 159.19140625 C35.85126105 162.40053671 34.94044091 165.70845682 34 169 C22.78 169 11.56 169 0 169 C0 113.23 0 57.46 0 0 Z " fill="#FB471D" transform="translate(316,259)"/>
<path d="M0 0 C0.81032318 0.00075944 1.62064637 0.00151888 2.4555248 0.00230134 C3.38957352 -0.00168076 4.32362223 -0.00566286 5.28597546 -0.00976562 C6.31903297 -0.00393994 7.35209048 0.00188574 8.41645277 0.00788796 C9.5084701 0.00617911 10.60048743 0.00447026 11.72559619 0.00270963 C15.40926535 -0.00060217 19.09275503 0.01044622 22.7764076 0.02134621 C25.40721098 0.02190996 28.03801468 0.02159448 30.66881788 0.0204612 C36.34535196 0.01941096 42.02184017 0.02570208 47.69836271 0.03693688 C55.90572035 0.05317009 64.11305574 0.05839765 72.3204277 0.06091286 C85.63535676 0.0652934 98.95026136 0.0786122 112.26517713 0.09751809 C125.20169932 0.11586763 138.13821487 0.13002866 151.07474744 0.13853371 C151.87174982 0.13905916 152.66875219 0.13958461 153.48990615 0.14012598 C157.48811186 0.14273599 161.48631762 0.14526342 165.48452342 0.14774978 C198.66956768 0.16849344 231.85456648 0.20536919 265.03959119 0.24839699 C265.03959119 18.39839699 265.03959119 36.54839699 265.03959119 55.24839699 C254.47959119 55.24839699 243.91959119 55.24839699 233.03959119 55.24839699 C232.04959119 52.27839699 231.05959119 49.30839699 230.03959119 46.24839699 C226.56666817 43.19525826 223.67106613 42.87080682 219.13529432 42.8602134 C217.38823194 42.84602868 217.38823194 42.84602868 215.60587537 42.83155739 C213.73228345 42.84066643 213.73228345 42.84066643 211.82084119 42.84995949 C210.53020765 42.84708931 209.2395741 42.84421914 207.90983045 42.84126198 C205.18295447 42.83684873 202.45637411 42.84323698 199.7295326 42.85728371 C196.24248951 42.87437556 192.75613922 42.86452894 189.26912153 42.84656632 C185.9321399 42.83308998 182.59534247 42.8425385 179.25834119 42.84995949 C178.00927991 42.8438868 176.76021863 42.83781411 175.47330701 42.83155739 C173.72624464 42.84574212 173.72624464 42.84574212 171.94388807 42.8602134 C170.92194349 42.86260018 169.89999891 42.86498696 168.84708631 42.86744606 C165.34140263 43.34313468 163.71673551 43.89484842 161.03959119 46.24839699 C160.04959119 49.21839699 159.05959119 52.18839699 158.03959119 55.24839699 C149.45959119 55.24839699 140.87959119 55.24839699 132.03959119 55.24839699 C131.04959119 50.79339699 131.04959119 50.79339699 130.03959119 46.24839699 C125.67755491 35.56557565 118.95171513 28.14162231 108.53177869 23.25620949 C98.10243395 19.03870018 86.82397501 18.49308665 76.10209119 22.18589699 C66.1695298 26.60588681 58.31771413 34.1994727 54.03959119 44.24839699 C53.49353693 46.13744321 52.96923804 48.03284995 52.46122205 49.93247902 C52.1940991 50.92683968 51.92697614 51.92120034 51.65175855 52.94569314 C51.44974332 53.70558541 51.2477281 54.46547768 51.03959119 55.24839699 C43.52822711 55.29897664 36.0169067 55.33407957 28.50541151 55.35826027 C25.94842867 55.36833737 23.3914574 55.38199925 20.83451307 55.3992759 C17.16586427 55.42344917 13.4973674 55.43486285 9.82865369 55.44370949 C8.1051721 55.45919335 8.1051721 55.45919335 6.34687269 55.47499001 C5.2859239 55.47514107 4.2249751 55.47529213 3.13187635 55.47544777 C2.19477827 55.479889 1.25768018 55.48433022 0.29218519 55.48890603 C-1.96040881 55.24839699 -1.96040881 55.24839699 -3.96040881 53.24839699 C-4.21437609 51.08518898 -4.21437609 51.08518898 -4.21919787 48.37144387 C-4.22550219 47.35699196 -4.23180651 46.34254006 -4.23830187 45.29734719 C-4.23425341 44.19838112 -4.23020495 43.09941506 -4.22603381 41.96714699 C-4.22794726 40.84272194 -4.22986071 39.7182969 -4.23183215 38.55979836 C-4.23319498 36.17914016 -4.22949175 33.79847456 -4.22115099 31.41783059 C-4.2104531 27.76352746 -4.22104325 24.10971599 -4.23384631 20.45542824 C-4.23252473 18.1468334 -4.22996237 15.83823887 -4.22603381 13.52964699 C-4.23008227 12.43068093 -4.23413073 11.33171486 -4.23830187 10.1994468 C-4.23199755 9.18499489 -4.22569323 8.17054299 -4.21919787 7.12535012 C-4.21760668 6.22981423 -4.2160155 5.33427834 -4.21437609 4.411605 C-3.87083975 1.48547784 -2.96791623 0.37605496 0 0 Z " fill="#FC471D" transform="translate(40.96040880680084,372.7516030073166)"/>
<path d="M0 0 C0.804375 -0.00128906 1.60875 -0.00257813 2.4375 -0.00390625 C3.283125 -0.00003906 4.12875 0.00382813 5 0.0078125 C6.2684375 0.00201172 6.2684375 0.00201172 7.5625 -0.00390625 C8.366875 -0.00261719 9.17125 -0.00132812 10 0 C10.7425 0.00112793 11.485 0.00225586 12.25 0.00341797 C14 0.1328125 14 0.1328125 15 1.1328125 C15.09785825 3.85135007 15.12993566 6.54447397 15.12025452 9.26344299 C15.12110894 10.12592697 15.12196337 10.98841094 15.12284368 11.87703079 C15.12450114 14.78986731 15.1189728 17.70264723 15.11352539 20.61547852 C15.11324355 22.6944173 15.11340119 24.77335619 15.1139679 26.85229492 C15.11425599 32.51528689 15.10835731 38.17825787 15.10139394 43.84124494 C15.09516241 49.75231143 15.09455676 55.66337836 15.09336853 61.57444763 C15.09025462 72.77648945 15.08204043 83.97852156 15.07201904 95.1805591 C15.06085975 107.93003613 15.05534792 120.67951361 15.05032361 133.4289943 C15.03985786 159.66360594 15.02205694 185.89820827 15 212.1328125 C8.4 212.1328125 1.8 212.1328125 -5 212.1328125 C-5.02311554 184.63910125 -5.04097745 157.14539232 -5.05181217 129.65167332 C-5.05697588 116.8868381 -5.06401998 104.12200902 -5.07543945 91.35717773 C-5.08538403 80.23573663 -5.09185288 69.11429996 -5.09408849 57.99285454 C-5.09539599 52.10019153 -5.09848427 46.20754123 -5.10573006 40.31488228 C-5.1124867 34.77545834 -5.11461769 29.23605242 -5.11310768 23.69662476 C-5.11338417 21.65715881 -5.11539139 19.6176923 -5.11920547 17.5782299 C-5.12413717 14.80661167 -5.12300024 12.03506263 -5.12025452 9.26344299 C-5.12316736 8.44536574 -5.1260802 7.6272885 -5.12908131 6.78442103 C-5.11077346 0.00776376 -5.11077346 0.00776376 0 0 Z " fill="#FE9700" transform="translate(291,150.8671875)"/>
<path d="M0 0 C3.39002721 1.29108191 6.52160831 2.75781541 9.67578125 4.546875 C10.57321045 5.05452393 11.47063965 5.56217285 12.39526367 6.08520508 C13.83929565 6.90927856 13.83929565 6.90927856 15.3125 7.75 C16.32868408 8.32709717 17.34486816 8.90419434 18.3918457 9.4987793 C26.51704339 14.12525525 34.5956416 18.82982144 42.66333008 23.55566406 C50.41246774 28.08985993 58.19917869 32.55564523 66 37 C75.72134099 42.53968899 85.40895092 48.13375063 95.06689453 53.78344727 C102.32211778 58.02617303 109.59357723 62.23990348 116.875 66.4375 C117.94234375 67.05294678 119.0096875 67.66839355 120.109375 68.30249023 C125.18632324 71.22882917 130.26469478 74.15267655 135.34506226 77.07307434 C137.1250134 78.09649255 138.90460669 79.12053013 140.68408203 80.14477539 C142.91349337 81.42778627 145.14359376 82.70960088 147.37451172 83.98999023 C152.98835339 87.22180988 158.53276032 90.52561507 164 94 C163.236875 94.556875 162.47375 95.11375 161.6875 95.6875 C156.64729531 100.02442031 155.64715057 103.7901314 155.11328125 110.20703125 C155.07589844 110.79871094 155.03851563 111.39039063 155 112 C150.13737088 110.5904342 146.04484954 108.42942027 141.75 105.8125 C140.23381085 104.90501595 138.71683112 103.99885194 137.19921875 103.09375 C136.37083496 102.59875 135.54245117 102.10375 134.68896484 101.59375 C129.67332135 98.6209771 124.61581773 95.72060528 119.5625 92.8125 C118.45680664 92.17546143 117.35111328 91.53842285 116.21191406 90.88208008 C113.93975918 89.57299343 111.66745991 88.26415738 109.39501953 86.95556641 C103.9283002 83.80667946 98.46425113 80.65316736 93 77.5 C90.83334689 76.2499765 88.66668021 74.99997653 86.5 73.75 C73.5 66.25 60.5 58.75 47.5 51.25 C46.4262915 50.63060547 45.35258301 50.01121094 44.24633789 49.37304688 C42.09169376 48.129877 39.93723243 46.88639025 37.78295898 45.64257812 C32.77245879 42.75016853 27.76037365 39.86064773 22.74136353 36.98303223 C20.98271251 35.97451686 19.22466791 34.9649523 17.46679688 33.95507812 C15.27527769 32.69649482 13.08265496 31.43983013 10.88867188 30.18554688 C4.13727598 26.30468668 -2.46591135 22.23641368 -9 18 C-8.31892933 13.21132566 -7.19912087 10.23065032 -4.5 6.1875 C-3.8709375 5.23230469 -3.241875 4.27710938 -2.59375 3.29296875 C-1 1 -1 1 0 0 Z " fill="#FC9600" transform="translate(121,47)"/>
<path d="M0 0 C7.11060531 5.1022664 11.7997946 11.97327366 14.30859375 20.3359375 C15.2406304 29.65630395 14.05900729 37.81569805 8.5703125 45.6875 C2.74355684 52.51054031 -3.60976404 57.30210235 -12.8125 58.14453125 C-23.33154062 58.60272978 -31.28949349 57.0611556 -39.59375 50.0078125 C-46.12451299 43.21471442 -48.63810179 35.77893893 -49.06640625 26.4609375 C-48.77905801 16.97844569 -45.55315614 9.38552858 -38.62890625 2.8359375 C-37.26667627 1.79062406 -35.87050779 0.78778806 -34.44140625 -0.1640625 C-33.47654297 -0.81181641 -33.47654297 -0.81181641 -32.4921875 -1.47265625 C-22.43605249 -7.00831914 -9.61465178 -5.55745137 0 0 Z " fill="#897E87" transform="translate(408.44140625,406.1640625)"/>
<path d="M0 0 C8.96371324 4.33196175 13.39986332 10.96890348 17.52734375 19.76953125 C20.1340621 27.5896863 18.76919907 36.93011702 15.375 44.3125 C11.01577906 51.78372034 4.78202533 57.08993447 -3.44921875 59.9453125 C-13.62947395 61.6633448 -22.94317467 61.20926453 -31.625 55.3125 C-32.5325 54.755625 -33.44 54.19875 -34.375 53.625 C-40.70079121 47.12349237 -44.62431679 39.04473115 -44.9375 30 C-44.75572085 21.0807032 -41.93821068 13.68433685 -35.61328125 7.2734375 C-25.61412189 -2.06363831 -13.07679994 -4.88147615 0 0 Z " fill="#897D87" transform="translate(145.625,403.6875)"/>
<path d="M0 0 C18.81 0 37.62 0 57 0 C59.475 6.8475 61.95 13.695 64.5 20.75 C65.28310547 22.9062793 66.06621094 25.06255859 66.87304688 27.28417969 C67.48878517 28.99656368 68.10405174 30.70911739 68.71875 32.421875 C69.04262695 33.3082666 69.36650391 34.1946582 69.70019531 35.10791016 C70.00473633 35.9601416 70.30927734 36.81237305 70.62304688 37.69042969 C70.88952026 38.42767273 71.15599365 39.16491577 71.43054199 39.92449951 C72 42 72 42 72 46 C48.24 46 24.48 46 0 46 C0 30.82 0 15.64 0 0 Z " fill="#61D9F8" transform="translate(367,282)"/>
<path d="M0 0 C0.87081711 0.00091141 1.74163422 0.00182281 2.63883972 0.00276184 C3.5341893 -0.00152328 4.42953888 -0.00580841 5.35202026 -0.01022339 C7.24929458 -0.01597336 9.14659094 -0.01646206 11.04386902 -0.01213074 C13.94114622 -0.00898073 16.83739274 -0.03238658 19.73454285 -0.05778503 C21.57764052 -0.06005902 23.42074093 -0.06076106 25.26383972 -0.05973816 C26.12858414 -0.06894791 26.99332855 -0.07815765 27.88427734 -0.08764648 C35.841039 -0.02676207 39.7615118 3.14043168 45.46305847 8.49104309 C45.98496765 8.97645569 46.50687683 9.46186829 47.04460144 9.96199036 C48.58640382 11.40247701 50.12010482 12.8510127 51.65055847 14.30354309 C52.47169128 15.08213684 53.2928241 15.86073059 54.13883972 16.66291809 C61.41770751 23.74218256 61.41770751 23.74218256 61.96305847 29.74104309 C61.56259532 34.30632299 60.07593626 36.64060234 57.15055847 40.05354309 C54.28770792 42.43925188 51.41751582 42.43625437 47.85954285 42.4646759 C46.88843567 42.47428345 45.91732849 42.48389099 44.91679382 42.49378967 C43.86987366 42.49803955 42.82295349 42.50228943 41.74430847 42.50666809 C40.12993896 42.5152182 40.12993896 42.5152182 38.48295593 42.52394104 C36.20663944 42.5333889 33.93030928 42.53992417 31.65397644 42.54377747 C28.16431545 42.55350474 24.675238 42.58453942 21.18571472 42.61604309 C18.97608281 42.62257098 16.76644668 42.62782229 14.55680847 42.63166809 C13.50988831 42.64401489 12.46296814 42.65636169 11.38432312 42.66908264 C10.41321594 42.66608154 9.44210876 42.66308044 8.4415741 42.6599884 C7.58680481 42.66363403 6.73203552 42.66727966 5.85136414 42.67103577 C3.13513469 42.21747713 2.30256064 41.47110438 0.65055847 39.30354309 C-0.51618958 36.21247864 -0.51618958 36.21247864 -1.61116028 32.44026184 C-1.90443962 31.43585808 -1.90443962 31.43585808 -2.2036438 30.41116333 C-2.61418905 28.99621225 -3.01986128 27.57983935 -3.42097473 26.16218567 C-4.03288721 24.00533365 -4.66354106 21.85462976 -5.29670715 19.70393372 C-5.69432902 18.32470385 -6.09084945 16.94515587 -6.48616028 15.56526184 C-6.84411682 14.31704651 -7.20207336 13.06883118 -7.57087708 11.78279114 C-8.31649453 8.45077662 -8.65644166 5.69979029 -8.34944153 2.30354309 C-5.67774716 -0.36815128 -3.6340192 0.04305392 0 0 Z " fill="#010404" transform="translate(126.34944152832031,253.6964569091797)"/>
<path d="M0 0 C1.14017578 -0.00708984 2.28035156 -0.01417969 3.45507812 -0.02148438 C11.69469178 0.04178496 11.69469178 0.04178496 14.00219727 1.51977539 C15.91237695 4.31546412 16.83914843 7.34999614 17.828125 10.5546875 C18.04821228 11.24885773 18.26829956 11.94302795 18.49505615 12.65823364 C18.95680902 14.12436177 19.41375777 15.59201047 19.86621094 17.06103516 C20.55937807 19.30240517 21.2746922 21.53584732 21.9921875 23.76953125 C22.43885962 25.19749208 22.88421624 26.62586521 23.328125 28.0546875 C23.54261292 28.71943085 23.75710083 29.38417419 23.97808838 30.06906128 C25.12736401 33.8714597 25.62678407 36.64115533 24.3125 40.4375 C21.22005049 43.52994951 17.5109033 42.7627886 13.359375 42.7734375 C12.01990814 42.7834227 12.01990814 42.7834227 10.65338135 42.79360962 C8.76031558 42.80374787 6.86721398 42.80842628 4.97412109 42.80810547 C2.08760888 42.8124621 -0.79735397 42.84872243 -3.68359375 42.88671875 C-5.52343228 42.89259011 -7.36327806 42.89655736 -9.203125 42.8984375 C-10.49249969 42.91999405 -10.49249969 42.91999405 -11.80792236 42.94198608 C-17.25108515 42.90083674 -20.38455197 42.08478445 -24.6875 38.4375 C-27.56669215 34.3509047 -27.88534758 31.63774863 -27.17553711 26.74707031 C-26.25414868 22.38672287 -24.64553594 18.31819357 -23 14.1875 C-22.67322266 13.30320312 -22.34644531 12.41890625 -22.00976562 11.5078125 C-20.48408555 7.64547901 -19.10493181 4.87270888 -16.2109375 1.85546875 C-10.83865462 -0.30654753 -5.73303192 -0.10149857 0 0 Z " fill="#010404" transform="translate(94.6875,253.5625)"/>
<path d="M0 0 C5.05098428 2.50919864 7.78107891 5.64215632 10.08984375 10.69140625 C11.82191392 15.9621144 11.29788562 20.45790563 9.56640625 25.65234375 C6.77803023 30.83075636 4.13105523 34.24501926 -1.18359375 36.90234375 C-7.07181194 38.64204458 -12.86087632 38.82705669 -18.49609375 36.21484375 C-24.00453137 33.07809455 -26.65534071 28.83369724 -28.63671875 22.93359375 C-30.33696238 16.61840311 -28.94987925 11.88528851 -25.9296875 6.28125 C-19.33892957 -2.69810477 -9.81784977 -4.16922388 0 0 Z " fill="#020202" transform="translate(400.18359375,415.09765625)"/>
<path d="M0 0 C4.10997383 2.97023319 7.25331448 6.52556843 8.859375 11.34375 C9.52454974 18.80243065 9.52368604 24.32924366 4.859375 30.34375 C0.20546432 35.23297077 -4.35747791 37.07441318 -11.015625 37.71875 C-16.55030363 37.53918982 -20.95335956 35.43137862 -24.94140625 31.625 C-29.83118587 26.11670411 -30.55022579 21.74408582 -30.48828125 14.42578125 C-29.82242403 8.52284477 -26.83506436 4.95346739 -22.640625 0.96875 C-15.31276423 -3.7943595 -7.70751743 -4.31620976 0 0 Z " fill="#020202" transform="translate(143.140625,415.65625)"/>
<path d="M0 0 C6.94170022 -0.05058729 13.88335315 -0.08568579 20.82519531 -0.10986328 C23.18816911 -0.11993924 25.55113039 -0.13360029 27.9140625 -0.15087891 C31.30471888 -0.17505724 34.69521084 -0.18646699 38.0859375 -0.1953125 C39.14743011 -0.20563507 40.20892273 -0.21595764 41.30258179 -0.22659302 C42.77388046 -0.22681961 42.77388046 -0.22681961 44.27490234 -0.22705078 C45.14094086 -0.231492 46.00697937 -0.23593323 46.89926147 -0.24050903 C49 0 49 0 51 2 C51.19852102 4.70922801 51.27839477 7.29303179 51.25 10 C51.26160156 11.10601562 51.26160156 11.10601562 51.2734375 12.234375 C51.2533196 17.7466804 51.2533196 17.7466804 49 20 C45.91475061 20.17553419 42.92035798 20.23122797 39.8359375 20.1953125 C38.47512558 20.19106766 38.47512558 20.19106766 37.08682251 20.18673706 C34.18274877 20.17552153 31.27898088 20.15041463 28.375 20.125 C26.40885861 20.11497197 24.4427124 20.10584581 22.4765625 20.09765625 C17.65092341 20.07557772 12.8255136 20.04103865 8 20 C7.63648438 18.83984375 7.63648438 18.83984375 7.265625 17.65625 C6.93046875 16.6146875 6.5953125 15.573125 6.25 14.5 C5.92515625 13.4790625 5.6003125 12.458125 5.265625 11.40625 C3.79132359 7.43837706 1.95966071 3.74619802 0 0 Z " fill="#FC471D" transform="translate(424,408)"/>
<path d="M0 0 C3.47207371 1.9005742 5.63204551 3.95795463 7.8125 7.3125 C8.225 7.910625 8.6375 8.50875 9.0625 9.125 C10.64911022 13.75261313 10.28771319 17.91481414 8.75 22.4375 C5.70494466 26.95596921 2.03171417 30.57276194 -3.1875 32.3125 C-8.52739401 33.15959162 -12.42411575 32.59972627 -17.0625 29.75 C-21.06075226 26.76352187 -22.93256838 24.24856436 -24.1875 19.3125 C-24.8288681 14.60913394 -24.70770852 11.35291704 -22.5625 7.0625 C-16.29099 -0.19924842 -9.54837957 -4.41790696 0 0 Z " fill="#897D87" transform="translate(227.1875,330.6875)"/>
<path d="M0 0 C4.14327184 2.25631664 6.69711307 5.08172615 8.8125 9.3125 C9.3197965 14.86781248 9.57510422 19.73080236 7.125 24.8125 C2.75305516 29.53892686 -0.82683026 32.3861683 -7.375 32.6875 C-12.70046341 32.60943946 -16.2395716 30.82375009 -20.1875 27.3125 C-24.04595855 23.03015446 -24.89650291 18.4799166 -24.62890625 12.80859375 C-23.73345496 7.74493557 -21.45853642 3.99439726 -17.3203125 0.9296875 C-11.42420762 -2.35102455 -6.21504309 -2.81457589 0 0 Z " fill="#897D87" transform="translate(78.1875,330.6875)"/>
<path d="M0 0 C18.15 0 36.3 0 55 0 C55 5.28 55 10.56 55 16 C36.85 16 18.7 16 0 16 C0 10.72 0 5.44 0 0 Z " fill="#61DAFA" transform="translate(209,425)"/>
<path d="M0 0 C27.90970385 -3.11409055 27.90970385 -3.11409055 37.1015625 3.8671875 C41.52907981 7.96767707 46.28875862 12.54463837 49 18 C48.67 19.32 48.34 20.64 48 22 C34.47 22 20.94 22 7 22 C5.04139512 16.77705366 3.29996753 11.8343663 1.8125 6.5 C1.46832031 5.2728125 1.12414062 4.045625 0.76953125 2.78125 C0.51558594 1.8634375 0.26164063 0.945625 0 0 Z " fill="#61D9F9" transform="translate(129,264)"/>
<path d="M0 0 C5.94 0 11.88 0 18 0 C19.00526268 3.10255177 20.0043978 6.20684899 21 9.3125 C21.28617188 10.19357422 21.57234375 11.07464844 21.8671875 11.98242188 C22.13789062 12.82998047 22.40859375 13.67753906 22.6875 14.55078125 C22.93886719 15.33106689 23.19023438 16.11135254 23.44921875 16.9152832 C24 19 24 19 24 22 C14.1 22 4.2 22 -6 22 C-7.02577933 17.89688269 -7.04738808 17.30937423 -5.56640625 13.671875 C-5.24736328 12.87265625 -4.92832031 12.0734375 -4.59960938 11.25 C-4.25736328 10.425 -3.91511719 9.6 -3.5625 8.75 C-3.22412109 7.90953125 -2.88574219 7.0690625 -2.53710938 6.203125 C-1.70134793 4.13137831 -0.85197344 2.06513263 0 0 Z " fill="#60D8F8" transform="translate(84,264)"/>
<path d="M0 0 C3.5386994 1.65139305 4.81070153 2.71605229 7 6 C7.67226891 12.94677871 7.67226891 12.94677871 5.125 16.9375 C1.89661432 20.07093316 -0.44929709 20.39218693 -4.9609375 20.359375 C-8.38006698 19.7567698 -9.93189052 17.63213933 -12 15 C-13.41000664 12.17998673 -13.24548451 10.12992745 -13 7 C-10.01415562 0.74394511 -6.81497582 -0.58749792 0 0 Z " fill="#C8C3C8" transform="translate(394,423)"/>
<path d="M0 0 C4.04212164 2.47018545 5.67811019 3.93965709 7.0625 8.5 C6.97663991 13.30816501 5.51517785 15.43070865 2.25 18.8125 C-1.08187066 20.57098729 -3.28346973 20.51262487 -7 20 C-11.04212164 17.52981455 -12.67811019 16.06034291 -14.0625 11.5 C-13.97663991 6.69183499 -12.51517785 4.56929135 -9.25 1.1875 C-5.91812934 -0.57098729 -3.71653027 -0.51262487 0 0 Z " fill="#C9C4C9" transform="translate(136,423)"/>
<path d="M0 0 C1.11890625 0.00322266 2.2378125 0.00644531 3.390625 0.00976562 C5.06898438 -0.0144043 5.06898438 -0.0144043 6.78125 -0.0390625 C8.38226563 -0.0400293 8.38226563 -0.0400293 10.015625 -0.04101562 C10.99789063 -0.04399658 11.98015625 -0.04697754 12.9921875 -0.05004883 C14.17941406 0.13424683 14.17941406 0.13424683 15.390625 0.32226562 C17.390625 3.32226562 17.390625 3.32226562 17.078125 5.94726562 C16.390625 8.32226562 16.390625 8.32226562 15.390625 9.32226562 C11.41786685 9.57483439 7.43296325 9.50749013 3.453125 9.50976562 C2.32970703 9.52201172 1.20628906 9.53425781 0.04882812 9.546875 C-1.02302734 9.54880859 -2.09488281 9.55074219 -3.19921875 9.55273438 C-4.68216431 9.55889771 -4.68216431 9.55889771 -6.19506836 9.56518555 C-8.609375 9.32226562 -8.609375 9.32226562 -10.609375 7.32226562 C-10.859375 4.82226562 -10.859375 4.82226562 -10.609375 2.32226562 C-7.50709763 -0.78001175 -4.23660161 0.02814168 0 0 Z " fill="#020000" transform="translate(343.609375,366.677734375)"/>
<path d="M0 0 C1.85625 -0.00773437 1.85625 -0.00773437 3.75 -0.015625 C7 0.25 7 0.25 10 2.25 C10.375 5.25 10.375 5.25 10 8.25 C6.32077133 10.70281911 4.37740649 10.51823919 0 10.5 C-1.2375 10.50515625 -2.475 10.5103125 -3.75 10.515625 C-7 10.25 -7 10.25 -10 8.25 C-10.375 5.25 -10.375 5.25 -10 2.25 C-6.32077133 -0.20281911 -4.37740649 -0.01823919 0 0 Z " fill="#010302" transform="translate(143,308.75)"/>
<path d="M0 0 C1.93166016 0.01740234 1.93166016 0.01740234 3.90234375 0.03515625 C5.19269531 0.04417969 6.48304688 0.05320312 7.8125 0.0625 C8.81152344 0.07410156 9.81054688 0.08570313 10.83984375 0.09765625 C10.83984375 3.39765625 10.83984375 6.69765625 10.83984375 10.09765625 C5.88984375 10.09765625 0.93984375 10.09765625 -4.16015625 10.09765625 C-4.2578125 3.1640625 -4.2578125 3.1640625 -4.16015625 1.09765625 C-3.16015625 0.09765625 -3.16015625 0.09765625 0 0 Z " fill="#FBE200" transform="translate(455.16015625,370.90234375)"/>
<path d="M0 0 C0.78246094 -0.02578125 1.56492188 -0.0515625 2.37109375 -0.078125 C4.5625 0.25 4.5625 0.25 6.359375 1.5703125 C7.5625 3.25 7.5625 3.25 7.375 6.375 C7.106875 7.32375 6.83875 8.2725 6.5625 9.25 C4.23563547 10.41343227 2.71528587 10.44895988 0.125 10.5 C-0.65746094 10.52578125 -1.43992188 10.5515625 -2.24609375 10.578125 C-4.4375 10.25 -4.4375 10.25 -6.234375 8.9296875 C-7.4375 7.25 -7.4375 7.25 -7.25 4.125 C-6.981875 3.17625 -6.71375 2.2275 -6.4375 1.25 C-4.11063547 0.08656773 -2.59028587 0.05104012 0 0 Z " fill="#010503" transform="translate(215.4375,300.75)"/>
<path d="M0 0 C0.9796875 0.00515625 1.959375 0.0103125 2.96875 0.015625 C3.9484375 0.01046875 4.928125 0.0053125 5.9375 0 C8.46875 0.265625 8.46875 0.265625 10.46875 2.265625 C10.71875 4.765625 10.71875 4.765625 10.46875 7.265625 C8.46875 9.265625 8.46875 9.265625 5.9375 9.53125 C4.9578125 9.52609375 3.978125 9.5209375 2.96875 9.515625 C1.9890625 9.52078125 1.009375 9.5259375 0 9.53125 C-2.53125 9.265625 -2.53125 9.265625 -4.53125 7.265625 C-4.78125 4.765625 -4.78125 4.765625 -4.53125 2.265625 C-2.53125 0.265625 -2.53125 0.265625 0 0 Z " fill="#000302" transform="translate(59.53125,301.734375)"/>
<path d="M0 0 C2.4375 0.8125 2.4375 0.8125 4.4375 2.8125 C4.10778521 6.10964793 3.8148161 7.4351839 1.4375 9.8125 C-1.6875 9.4375 -1.6875 9.4375 -4.5625 8.8125 C-5.89091008 3.37809513 -5.89091008 3.37809513 -4.4375 0.875 C-2.5625 -0.1875 -2.5625 -0.1875 0 0 Z " fill="#070607" transform="translate(220.5625,341.1875)"/>
<path d="M0 0 C2.5 0.25 2.5 0.25 4.5 2.25 C4.125 5.875 4.125 5.875 3.5 9.25 C1.1875 9.875 1.1875 9.875 -1.5 10.25 C-2.49 9.59 -3.48 8.93 -4.5 8.25 C-4.8125 5.25 -4.8125 5.25 -4.5 2.25 C-2.5 0.25 -2.5 0.25 0 0 Z " fill="#0A0600" transform="translate(125.5,55.75)"/>
<path d="M0 0 C1 1 1 1 1.1875 3.9375 C1 7 1 7 -1 9 C-6.56818182 8.43181818 -6.56818182 8.43181818 -8 7 C-7.6875 3.5 -7.6875 3.5 -7 0 C-4.31633121 -1.3418344 -2.84719317 -0.73004953 0 0 Z " fill="#040404" transform="translate(74,342)"/>
</svg>
